<svg width="500" height="500" version="1.1" xmlns="http://www.w3.org/2000/svg" desc="Created with imagetracer.js version 1.2.6" ><path fill="rgb(0,0,0)" stroke="rgb(0,0,0)" stroke-width="1" opacity="0" d="M 0 0 L 500 0 L 500 500 L 0 500 L 0 0 Z M 55 163 L 55 176 L 61 175 L 81 175 L 95 178 L 115 185 L 140 196 L 162 201 Q 171 202 176 200 L 162 199 L 147 195 L 102 172 L 91 168 L 74 164 L 55 163 Z M 97 165 L 97 166 L 106 168 L 119 174 L 143 189 L 159 194 L 175 194 L 178 193 L 166 192 L 152 188 L 119 170 Q 110 165 97 165 Z M 35 168 L 34 171 L 35 174 L 35 185 L 34 186 L 34 292 L 74 292 Q 77 290 75 284 L 70 281 L 68 282 L 47 282 L 47 253 L 46 252 L 47 170 L 46 168 L 35 168 Z M 55 178 L 56 188 L 71 184 L 91 184 L 103 187 L 105 187 L 84 179 L 55 178 Z M 179 191 L 179 192 L 181 192 L 179 191 Z M 220 202 L 212 204 L 209 208 L 209 217 L 208 218 L 208 288 L 209 290 L 216 294 L 250 294 L 253 293 L 257 288 Q 256 282 258 281 L 257 254 L 256 252 L 236 252 L 235 253 L 233 254 L 233 263 L 236 265 L 245 265 L 246 267 L 246 280 L 245 282 L 238 282 L 237 283 L 223 283 L 219 281 L 220 279 L 220 230 L 221 229 L 222 217 L 224 215 L 244 215 L 245 217 L 246 223 L 256 223 L 257 222 Q 259 212 256 207 L 250 202 L 220 202 Z M 109 203 L 103 223 L 101 236 L 87 289 L 87 294 L 97 294 L 99 290 L 101 278 L 104 275 L 124 275 L 126 279 L 128 291 L 131 295 L 141 294 L 134 259 L 123 222 L 120 206 L 118 203 L 109 203 Z M 169 203 L 163 224 L 161 237 L 147 290 L 147 294 L 157 294 L 159 291 L 162 277 L 164 275 L 185 275 L 190 295 L 201 294 L 201 289 L 196 271 L 194 258 L 184 225 L 180 206 L 178 203 L 169 203 Z M 287 203 L 284 208 L 283 215 L 279 226 L 278 235 L 263 292 L 265 294 Q 272 295 275 293 L 278 277 L 280 275 L 301 275 L 303 280 L 305 292 L 308 295 L 318 294 L 317 286 L 312 269 L 311 260 L 300 223 L 296 205 L 295 203 L 287 203 Z M 326 204 L 324 206 L 324 294 L 327 295 L 335 294 L 336 293 L 336 251 L 337 250 L 338 238 L 355 271 L 364 292 L 369 295 Q 372 294 371 297 L 385 305 L 388 310 L 390 324 L 393 325 L 395 323 L 395 307 L 430 284 L 433 296 L 439 327 L 442 331 L 447 328 L 449 325 L 448 314 L 452 311 Q 453 307 451 306 L 448 306 L 448 299 L 451 297 L 452 295 L 450 291 L 447 291 L 447 272 L 460 265 L 469 255 L 469 249 L 467 248 Q 456 248 451 253 L 440 262 L 423 255 L 423 254 L 422 250 L 417 252 L 409 250 Q 410 245 407 244 L 403 246 L 400 246 L 392 242 L 386 244 L 383 248 L 423 275 L 391 299 L 375 294 L 375 286 L 376 285 L 376 264 L 375 263 L 375 205 L 375 204 L 366 204 L 364 206 L 364 257 L 343 222 L 336 206 L 335 204 L 326 204 Z M 237 301 L 233 304 L 212 325 Q 205 333 201 345 Q 200 356 204 361 L 215 367 L 220 368 L 239 368 L 240 367 L 253 366 L 284 357 Q 335 337 382 312 L 381 309 L 377 309 Q 344 329 306 343 L 274 353 L 239 360 L 219 360 L 213 358 L 208 354 L 207 350 L 209 341 L 215 330 Q 225 314 238 303 Q 239 300 237 301 Z " /><path fill="rgb(0,0,0)" stroke="rgb(0,0,0)" stroke-width="1" opacity="0" d="M 112.5 232 L 122 262.5 Q 114.8 265.4 104 264 L 111 233.5 L 112.5 232 Z " /><path fill="rgb(0,0,0)" stroke="rgb(0,0,0)" stroke-width="1" opacity="0" d="M 172.5 232 L 182 263 L 165 264 L 165 258.5 L 172.5 232 Z " /><path fill="rgb(0,0,0)" stroke="rgb(0,0,0)" stroke-width="1" opacity="0" d="M 288.5 232 L 292 238.5 L 298 263 Q 291.5 265.1 281 264 L 288.5 232 Z " /><path fill="rgb(239,230,212)" stroke="rgb(239,230,212)" stroke-width="1" opacity="0.9098039215686274" d="M 55 163 L 73.5 164 L 90.5 168 L 101.5 172 L 146.5 195 L 161.5 199 L 176 199.5 Q 170.8 202.3 161.5 201 L 139.5 196 L 114.5 185 L 94.5 178 L 80.5 175 L 60.5 175 L 55 176 L 55 163 Z " /><path fill="rgb(239,230,212)" stroke="rgb(239,230,212)" stroke-width="1" opacity="0.9098039215686274" d="M 96.5 165 Q 109.6 165.4 118.5 170 L 151.5 188 L 165.5 192 L 177.5 192 L 180.5 191 L 180.5 192 Q 172.5 196 158.5 194 L 142.5 189 L 118.5 174 L 105.5 168 L 96.5 166 L 96.5 165 Z " /><path fill="rgb(239,230,212)" stroke="rgb(239,230,212)" stroke-width="1" opacity="0.9098039215686274" d="M 35 168 L 45.5 168 L 47 169.5 L 46 251.5 L 47 252.5 L 47 282 L 67.5 282 L 69.5 281 L 75 283.5 Q 76.8 290.3 73.5 292 L 34 292 L 34 185.5 L 35 184.5 L 35 173.5 L 34 170.5 L 35 168 Z " /><path fill="rgb(239,230,212)" stroke="rgb(239,230,212)" stroke-width="1" opacity="0.9098039215686274" d="M 55 178 L 83.5 179 Q 96.8 181.7 107 187.5 L 105.5 188 L 101.5 186 L 90.5 184 L 70.5 184 L 55.5 188 L 55 178 Z " /><path fill="rgb(239,230,212)" stroke="rgb(239,230,212)" stroke-width="1" opacity="0.9098039215686274" d="M 219.5 202 L 249.5 202 L 256 206.5 Q 258.5 212 257 221.5 L 255.5 223 L 246 223 L 245 216.5 L 243.5 215 L 223.5 215 L 222 216.5 L 221 228.5 L 220 229.5 L 220 278.5 L 219 280.5 L 222.5 283 L 236.5 283 L 237.5 282 L 245 282 L 246 279.5 L 246 266.5 L 244.5 265 L 235.5 265 L 233 262.5 L 233 253.5 L 234.5 253 L 235.5 252 L 255.5 252 L 257 253.5 L 258 280.5 Q 255.5 282 257 287.5 L 252.5 293 L 249.5 294 L 215.5 294 L 209 289.5 L 208 287.5 L 208 217.5 L 209 216.5 L 209 207.5 L 211.5 204 L 219.5 202 Z " /><path fill="rgb(239,230,212)" stroke="rgb(239,230,212)" stroke-width="1" opacity="0.9098039215686274" d="M 109 203 L 117.5 203 L 120 205.5 L 123 221.5 L 134 258.5 L 141 294 L 130.5 295 L 128 290.5 L 126 278.5 L 123.5 275 L 103.5 275 L 101 277.5 L 99 289.5 L 96.5 294 L 87 294 L 87 288.5 L 101 235.5 L 103 222.5 L 109 203 Z M 113 232 L 111 234 L 104 264 Q 115 265 122 263 L 113 232 Z " /><path fill="rgb(239,230,212)" stroke="rgb(239,230,212)" stroke-width="1" opacity="0.9098039215686274" d="M 169 203 L 177.5 203 L 180 205.5 L 184 224.5 L 194 257.5 L 196 270.5 L 201 288.5 L 201 294 L 190 295 L 185 275 L 163.5 275 L 162 276.5 L 159 290.5 L 156.5 294 L 147 294 L 147 289.5 L 161 236.5 L 163 223.5 L 169 203 Z M 173 232 L 165 259 L 165 264 L 182 263 L 173 232 Z " /><path fill="rgb(239,230,212)" stroke="rgb(239,230,212)" stroke-width="1" opacity="0.9098039215686274" d="M 286.5 203 L 294.5 203 L 296 204.5 L 300 222.5 L 311 259.5 L 312 268.5 L 317 285.5 L 318 294 L 307.5 295 L 305 291.5 L 303 279.5 L 300.5 275 L 279.5 275 L 278 276.5 L 275 293 Q 272 295 264.5 294 L 263 291.5 L 278 234.5 L 279 225.5 L 283 214.5 L 284 207.5 L 286.5 203 Z M 289 232 L 281 264 Q 292 265 298 263 L 292 239 L 289 232 Z " /><path fill="rgb(239,230,212)" stroke="rgb(239,230,212)" stroke-width="1" opacity="0.9098039215686274" d="M 325.5 204 L 334.5 204 L 336 205.5 L 343 221.5 L 363.5 257 L 364 205.5 L 365.5 204 L 374.5 204 L 375 204.5 L 375 262.5 L 376 263.5 L 376 284.5 L 375 285.5 L 375 294 L 390.5 299 L 423 274.5 L 383 247.5 L 385.5 244 L 391.5 242 L 399.5 246 L 402.5 246 L 406.5 244 Q 410 245.3 409 250 L 416.5 252 L 421.5 250 L 423 253.5 L 422.5 255 L 439.5 262 L 450.5 253 Q 456.2 248.2 466.5 248 L 469 249 L 469 254.5 L 459.5 265 L 447 272 L 447 290.5 L 449.5 291 L 452 294.5 L 451 297 L 448 298.5 L 448 305.5 L 450.5 306 Q 452.8 306.8 452 310.5 L 448 313.5 L 449 324.5 L 446.5 328 L 441.5 331 L 439 326.5 L 433 295.5 L 429.5 284 L 395 306.5 L 395 322.5 L 392.5 325 L 390 323.5 L 388 309.5 L 384.5 305 L 371 296.5 Q 371.8 293.9 368.5 295 L 364 291.5 L 355 270.5 L 337.5 238 L 337 249.5 L 336 250.5 L 336 292.5 L 334.5 294 L 326.5 295 L 324 294 L 324 205.5 L 325.5 204 Z " /><path fill="rgb(239,230,212)" stroke="rgb(239,230,212)" stroke-width="1" opacity="0.9098039215686274" d="M 236.5 301 Q 238.8 300.3 238 302.5 Q 224.9 314.4 215 329.5 L 209 340.5 L 207 349.5 L 208 353.5 L 212.5 358 L 218.5 360 L 238.5 360 L 273.5 353 L 305.5 343 Q 344.5 329.5 376.5 309 L 380.5 309 L 382 311.5 Q 335.3 336.8 283.5 357 L 252.5 366 L 239.5 367 L 238.5 368 L 219.5 368 L 214.5 367 L 204 361 Q 199.5 356.3 201 344.5 Q 204.5 332.5 212 324.5 L 232.5 304 L 236.5 301 Z " /></svg>