<svg xmlns="http://www.w3.org/2000/svg" xmlns:xlink="http://www.w3.org/1999/xlink" width="500" zoomAndPan="magnify" viewBox="0 0 375 374.999991" height="500" preserveAspectRatio="xMidYMid meet" version="1.0"><defs><g/><clipPath id="76f65257c1"><path d="M 150.8125 226.007812 L 286.183594 226.007812 L 286.183594 275.816406 L 150.8125 275.816406 Z M 150.8125 226.007812 " clip-rule="nonzero"/></clipPath><clipPath id="cc028678da"><path d="M 278 182 L 351.882812 182 L 351.882812 248 L 278 248 Z M 278 182 " clip-rule="nonzero"/></clipPath><clipPath id="585d44109a"><path d="M 40.789062 122 L 135 122 L 135 151 L 40.789062 151 Z M 40.789062 122 " clip-rule="nonzero"/></clipPath><clipPath id="49422ee939"><path d="M 40.789062 133 L 84 133 L 84 143 L 40.789062 143 Z M 40.789062 133 " clip-rule="nonzero"/></clipPath><clipPath id="6b6b408620"><path d="M 67 123 L 136.296875 123 L 136.296875 146 L 67 146 Z M 67 123 " clip-rule="nonzero"/></clipPath></defs><g fill="#df6951" fill-opacity="1"><g transform="translate(23.11896, 219.353057)"><g><path d="M 3.328125 -91.9375 C 3.503906 -92.03125 3.632812 -92.117188 3.71875 -92.203125 C 3.8125 -92.296875 3.898438 -92.34375 3.984375 -92.34375 C 4.160156 -92.425781 4.378906 -92.46875 4.640625 -92.46875 C 4.910156 -92.46875 5.132812 -92.46875 5.3125 -92.46875 C 5.84375 -92.46875 6.375 -92.488281 6.90625 -92.53125 C 7.4375 -92.582031 7.96875 -92.648438 8.5 -92.734375 C 8.675781 -92.828125 8.894531 -92.847656 9.15625 -92.796875 C 9.425781 -92.753906 9.648438 -92.734375 9.828125 -92.734375 C 10.890625 -92.734375 11.507812 -92.203125 11.6875 -91.140625 C 11.6875 -90.703125 11.6875 -90.238281 11.6875 -89.75 C 11.6875 -89.257812 11.6875 -88.789062 11.6875 -88.34375 C 11.6875 -86.925781 11.6875 -85.550781 11.6875 -84.21875 C 11.6875 -82.894531 11.6875 -81.523438 11.6875 -80.109375 C 11.78125 -78.691406 11.800781 -77.253906 11.75 -75.796875 C 11.707031 -74.335938 11.644531 -72.898438 11.5625 -71.484375 C 11.5625 -71.210938 11.5625 -70.921875 11.5625 -70.609375 C 11.5625 -70.304688 11.5625 -70.066406 11.5625 -69.890625 C 11.289062 -68.828125 11.15625 -67.785156 11.15625 -66.765625 C 11.15625 -65.742188 11.15625 -64.703125 11.15625 -63.640625 C 11.15625 -59.472656 11.15625 -55.285156 11.15625 -51.078125 C 11.15625 -46.878906 11.203125 -42.695312 11.296875 -38.53125 C 11.296875 -37.289062 11.296875 -36.003906 11.296875 -34.671875 C 11.296875 -33.347656 11.335938 -32.066406 11.421875 -30.828125 C 11.597656 -27.460938 11.664062 -24.070312 11.625 -20.65625 C 11.582031 -17.25 11.601562 -13.863281 11.6875 -10.5 C 11.6875 -10.144531 11.6875 -9.765625 11.6875 -9.359375 C 11.6875 -8.960938 11.6875 -8.546875 11.6875 -8.109375 C 11.6875 -7.753906 11.863281 -7.441406 12.21875 -7.171875 C 12.488281 -7.171875 12.753906 -7.148438 13.015625 -7.109375 C 13.285156 -7.066406 13.550781 -7.046875 13.8125 -7.046875 C 15.582031 -7.046875 17.394531 -7.066406 19.25 -7.109375 C 21.113281 -7.148438 22.976562 -7.171875 24.84375 -7.171875 C 25.289062 -7.171875 25.644531 -7.21875 25.90625 -7.3125 C 26.789062 -7.488281 27.628906 -7.550781 28.421875 -7.5 C 29.222656 -7.457031 30.066406 -7.4375 30.953125 -7.4375 C 31.046875 -7.4375 31.113281 -7.4375 31.15625 -7.4375 C 31.195312 -7.4375 31.21875 -7.4375 31.21875 -7.4375 C 31.925781 -7.4375 32.367188 -7.039062 32.546875 -6.25 C 32.546875 -5.894531 32.566406 -5.515625 32.609375 -5.109375 C 32.660156 -4.710938 32.6875 -4.296875 32.6875 -3.859375 C 32.6875 -3.503906 32.6875 -3.101562 32.6875 -2.65625 C 32.6875 -2.21875 32.640625 -1.773438 32.546875 -1.328125 C 32.546875 -0.972656 32.457031 -0.707031 32.28125 -0.53125 C 31.75 -0.175781 31.265625 -0.046875 30.828125 -0.140625 C 29.316406 -0.316406 27.804688 -0.378906 26.296875 -0.328125 C 24.796875 -0.285156 23.289062 -0.222656 21.78125 -0.140625 C 21.425781 -0.046875 21.070312 -0.0195312 20.71875 -0.0625 C 20.363281 -0.113281 19.96875 -0.140625 19.53125 -0.140625 C 15.894531 -0.316406 12.21875 -0.316406 8.5 -0.140625 C 7.789062 -0.046875 7.082031 -0.0195312 6.375 -0.0625 C 5.664062 -0.113281 4.957031 -0.140625 4.25 -0.140625 C 3.28125 -0.140625 2.796875 -0.671875 2.796875 -1.734375 C 2.796875 -1.910156 2.796875 -2.109375 2.796875 -2.328125 C 2.796875 -2.546875 2.796875 -2.789062 2.796875 -3.0625 C 2.796875 -3.769531 2.796875 -4.453125 2.796875 -5.109375 C 2.796875 -5.773438 2.796875 -6.421875 2.796875 -7.046875 C 2.703125 -14.128906 2.65625 -21.210938 2.65625 -28.296875 C 2.65625 -35.378906 2.65625 -42.421875 2.65625 -49.421875 C 2.65625 -53.054688 2.675781 -56.664062 2.71875 -60.25 C 2.769531 -63.832031 2.796875 -67.398438 2.796875 -70.953125 C 2.796875 -71.390625 2.796875 -71.804688 2.796875 -72.203125 C 2.796875 -72.609375 2.835938 -72.988281 2.921875 -73.34375 C 3.015625 -73.875 3.0625 -74.378906 3.0625 -74.859375 C 3.0625 -75.347656 3.0625 -75.859375 3.0625 -76.390625 C 3.238281 -78.515625 3.328125 -80.640625 3.328125 -82.765625 C 3.328125 -84.890625 3.28125 -87.0625 3.1875 -89.28125 C 3.007812 -90.257812 3.054688 -91.144531 3.328125 -91.9375 Z M 3.328125 -91.9375 "/></g></g></g><path fill="#ffbd59" d="M 287.3125 238.34375 L 287.308594 238.324219 Z M 287.3125 238.34375 " fill-opacity="1" fill-rule="nonzero"/><path fill="#ffbd59" d="M 233.261719 250.929688 C 233.257812 250.914062 233.25 250.898438 233.242188 250.882812 L 233.238281 250.882812 C 233.246094 250.898438 233.253906 250.914062 233.261719 250.929688 " fill-opacity="1" fill-rule="nonzero"/><path fill="#ffbd59" d="M 203.757812 260.226562 C 203.757812 260.230469 203.761719 260.230469 203.761719 260.234375 L 203.757812 260.226562 " fill-opacity="1" fill-rule="nonzero"/><g clip-path="url(#76f65257c1)"><path fill="#ffbd59" d="M 151.667969 267.019531 C 152.15625 268.207031 152.859375 269.3125 153.710938 270.25 C 154.566406 271.191406 155.558594 271.960938 156.585938 272.585938 C 158.648438 273.832031 160.839844 274.542969 162.996094 275.007812 C 165.160156 275.464844 167.308594 275.679688 169.4375 275.773438 C 171.566406 275.867188 173.675781 275.804688 175.761719 275.679688 C 179.941406 275.417969 184.050781 274.828125 188.097656 274.035156 C 190.121094 273.632812 192.128906 273.195312 194.121094 272.699219 C 196.117188 272.210938 198.097656 271.671875 200.0625 271.101562 C 203.136719 270.214844 206.175781 269.234375 209.183594 268.191406 C 211.136719 267.511719 213.074219 266.808594 215.003906 266.078125 C 217.726562 265.054688 220.429688 263.984375 223.117188 262.890625 C 227.609375 261.050781 232.066406 259.132812 236.5 257.179688 C 238.296875 256.386719 240.09375 255.582031 241.886719 254.78125 C 243.078125 254.246094 244.269531 253.710938 245.457031 253.175781 C 252.84375 249.828125 260.195312 246.402344 267.5 242.886719 C 272.375 240.53125 277.289062 238.140625 282.136719 235.710938 C 283.023438 235.269531 284.476562 234.53125 285.445312 234.039062 C 286.089844 233.710938 286.214844 232.816406 285.652344 232.355469 C 285.621094 232.328125 285.589844 232.304688 285.554688 232.285156 C 284.695312 231.761719 283.617188 231.746094 282.742188 232.25 C 282.230469 232.542969 281.683594 232.855469 281.292969 233.082031 C 276.464844 235.878906 271.578125 238.566406 266.617188 241.125 C 259.441406 244.835938 252.136719 248.300781 244.699219 251.4375 C 244.179688 251.664062 243.65625 251.878906 243.132812 252.09375 C 242.867188 252.207031 242.601562 252.316406 242.335938 252.421875 C 242.21875 252.46875 242.097656 252.519531 241.980469 252.566406 C 241.800781 252.640625 241.621094 252.714844 241.441406 252.789062 C 241.261719 252.859375 241.089844 252.933594 240.910156 253.003906 C 240.777344 253.058594 240.644531 253.113281 240.507812 253.164062 C 240.191406 253.292969 239.871094 253.421875 239.554688 253.550781 C 239.546875 253.550781 239.542969 253.554688 239.539062 253.554688 C 239.082031 253.734375 238.621094 253.917969 238.164062 254.097656 C 237.707031 254.277344 237.234375 254.417969 236.773438 254.59375 C 236.316406 254.773438 235.855469 254.945312 235.382812 255.085938 L 235.371094 255.089844 C 230.988281 256.910156 226.488281 258.347656 221.988281 259.792969 C 218.824219 260.816406 215.625 261.734375 212.449219 262.699219 L 212.441406 262.699219 C 210.453125 263.304688 208.464844 263.90625 206.4375 264.359375 C 206.433594 264.359375 206.433594 264.359375 206.429688 264.359375 L 206.40625 264.367188 C 203.898438 265.128906 201.339844 265.71875 198.800781 266.332031 C 197.828125 266.566406 196.859375 266.808594 195.882812 267.03125 C 194.910156 267.25 193.941406 267.476562 192.964844 267.683594 C 191.015625 268.097656 189.070312 268.503906 187.113281 268.859375 C 183.210938 269.570312 179.300781 270.15625 175.402344 270.460938 C 173.457031 270.609375 171.515625 270.671875 169.597656 270.636719 C 167.683594 270.601562 165.789062 270.449219 163.984375 270.109375 C 162.183594 269.769531 160.457031 269.253906 159.027344 268.445312 C 157.59375 267.636719 156.503906 266.570312 155.882812 265.214844 C 155.246094 263.871094 155.101562 262.210938 155.304688 260.472656 C 155.511719 258.730469 156.066406 256.933594 156.773438 255.175781 C 157.484375 253.410156 158.375 251.679688 159.355469 249.984375 C 160.328125 248.28125 161.40625 246.625 162.539062 244.992188 C 164.804688 241.726562 167.308594 238.585938 169.90625 235.519531 C 172.507812 232.453125 175.222656 229.457031 177.988281 226.496094 L 177.585938 226.0625 C 174.417969 228.605469 171.347656 231.28125 168.402344 234.105469 C 165.460938 236.925781 162.636719 239.902344 160.023438 243.09375 C 157.425781 246.296875 154.996094 249.699219 153.136719 253.566406 C 152.21875 255.507812 151.449219 257.578125 151.050781 259.839844 C 150.855469 260.96875 150.761719 262.152344 150.84375 263.375 C 150.925781 264.585938 151.1875 265.832031 151.667969 267.019531 " fill-opacity="1" fill-rule="nonzero"/></g><path fill="#ffbd59" d="M 337.109375 249.386719 C 337.113281 249.394531 337.113281 249.398438 337.113281 249.402344 C 337.117188 249.410156 337.117188 249.414062 337.121094 249.421875 L 337.175781 249.382812 C 337.152344 249.382812 337.132812 249.382812 337.109375 249.386719 " fill-opacity="1" fill-rule="nonzero"/><g clip-path="url(#cc028678da)"><path fill="#ffbd59" d="M 279.386719 222.910156 L 284.199219 225.890625 L 285.5 226.695312 C 285.5 226.695312 288.667969 228.660156 288.691406 228.675781 C 289.425781 229.128906 290.085938 229.703125 290.496094 230.472656 C 290.855469 231.144531 290.960938 231.902344 291.109375 232.640625 C 291.335938 233.785156 291.566406 234.929688 291.796875 236.070312 L 291.796875 236.082031 L 293.089844 242.527344 C 293.269531 243.394531 293.949219 243.71875 294.625 243.246094 C 295.292969 242.777344 295.867188 241.667969 295.886719 240.785156 L 296.046875 233.863281 L 296.042969 233.859375 L 296.136719 229.210938 L 302.867188 224.875 L 303.359375 224.558594 L 303.367188 224.554688 L 322.523438 212.210938 L 322.695312 213.027344 L 322.699219 213.039062 L 322.769531 213.027344 L 323.984375 217.824219 L 323.992188 217.851562 L 330.378906 246.78125 C 330.515625 247.382812 330.832031 247.785156 331.285156 247.648438 L 331.308594 247.640625 C 331.480469 247.589844 331.671875 247.507812 331.863281 247.375 L 334.878906 245.261719 C 335.585938 244.769531 336.148438 243.683594 336.117188 242.828125 L 335.863281 234.730469 C 336.078125 234.691406 336.230469 234.523438 336.417969 234.390625 L 337.746094 233.460938 L 338.101562 233.214844 C 338.808594 232.722656 339.125 231.898438 338.636719 231.195312 L 338.277344 230.683594 C 338.121094 230.457031 337.898438 230.269531 337.644531 230.136719 C 337.109375 229.851562 336.4375 229.808594 335.960938 230.140625 L 335.65625 230.351562 L 335.488281 223.296875 C 335.703125 223.257812 335.980469 223.273438 336.167969 223.140625 L 336.867188 222.65625 L 337.804688 222 C 338.507812 221.507812 338.6875 220.503906 338.195312 219.800781 L 337.84375 219.292969 C 337.519531 218.835938 336.925781 218.515625 336.355469 218.488281 C 336.050781 218.46875 335.75 218.535156 335.507812 218.707031 L 335.253906 218.882812 L 335.027344 210.921875 L 335.019531 210.5625 L 334.859375 204.980469 L 334.835938 204.191406 L 344.515625 198.117188 L 344.59375 198.070312 C 346.808594 196.636719 350.367188 192.742188 351.4375 189.875 C 351.804688 188.894531 351.882812 188.03125 351.511719 187.433594 C 351.167969 186.871094 350.464844 186.589844 349.550781 186.511719 C 346.640625 186.265625 341.613281 188.089844 339.347656 189.558594 C 339.308594 189.585938 335.910156 192.132812 330.953125 195.867188 C 330.792969 195.988281 330.632812 196.113281 330.464844 196.238281 C 330.214844 196.425781 329.960938 196.617188 329.699219 196.8125 L 329.214844 196.613281 L 328.894531 196.484375 L 324.445312 194.671875 L 315.964844 191.214844 L 316.21875 191.039062 C 316.921875 190.550781 317.132812 189.589844 316.644531 188.886719 L 316.285156 188.375 C 315.796875 187.671875 314.929688 187.695312 314.226562 188.183594 L 312.59375 189.324219 C 312.402344 189.457031 312.164062 189.5 312.054688 189.691406 L 305.34375 186.871094 L 305.648438 186.664062 C 306.347656 186.171875 306.59375 185.242188 306.105469 184.539062 L 305.746094 184.027344 C 305.261719 183.324219 304.207031 183.097656 303.503906 183.585938 L 301.816406 184.761719 C 301.625 184.894531 301.480469 185.070312 301.371094 185.257812 L 293.855469 182.203125 C 293.0625 181.878906 291.796875 181.960938 291.09375 182.449219 L 288.074219 184.554688 C 287.371094 185.042969 287.425781 185.882812 288.144531 186.351562 L 312.046875 201.820312 L 316.859375 204.941406 L 317.984375 205.667969 C 317.621094 205.945312 317.253906 206.222656 316.886719 206.5 C 306.84375 214.070312 296.460938 221.894531 292.867188 224.605469 L 288.679688 223.171875 L 283.941406 221.550781 L 281.984375 220.882812 C 281.152344 220.597656 279.917969 220.746094 279.246094 221.210938 C 278.574219 221.683594 278.636719 222.445312 279.386719 222.910156 " fill-opacity="1" fill-rule="nonzero"/></g><g clip-path="url(#585d44109a)"><path fill="#236297" d="M 120.421875 148.769531 C 115.761719 147.890625 111.230469 146.390625 106.875 144.515625 C 98.023438 140.707031 89.804688 135.578125 81.128906 131.390625 C 68.53125 125.308594 55.265625 121.792969 41.226562 122.519531 L 40.804688 122.539062 L 40.804688 132.257812 C 46.15625 131.53125 51.566406 131.011719 52.410156 131.023438 C 60.765625 131.15625 69.046875 132.921875 76.914062 135.683594 C 86.148438 138.929688 94.875 143.515625 104.148438 146.660156 C 112.960938 149.648438 124.960938 152.5625 134.136719 149.492188 C 129.53125 149.34375 125.058594 149.644531 120.421875 148.769531 Z M 120.421875 148.769531 " fill-opacity="1" fill-rule="nonzero"/></g><g clip-path="url(#49422ee939)"><path fill="#236297" d="M 78.726562 139.628906 C 77.039062 138.824219 75.316406 138.089844 73.558594 137.433594 C 70.171875 136.164062 66.703125 135.175781 63.15625 134.460938 C 55.757812 132.964844 48.308594 132.644531 40.808594 133.5 L 40.804688 133.5 L 40.804688 141.097656 C 42.304688 140.625 43.824219 140.203125 45.359375 139.839844 C 52.632812 138.121094 59.988281 137.640625 67.421875 138.394531 C 72.929688 138.945312 78.277344 140.191406 83.460938 142.132812 C 81.84375 141.527344 80.300781 140.378906 78.726562 139.628906 Z M 78.726562 139.628906 " fill-opacity="1" fill-rule="nonzero"/></g><g clip-path="url(#6b6b408620)"><path fill="#236297" d="M 67.332031 123.210938 C 67.367188 123.335938 67.460938 123.394531 67.59375 123.417969 C 73.539062 124.402344 79.230469 126.195312 84.664062 128.800781 C 91.023438 131.847656 96.8125 136.019531 102.929688 139.507812 C 107.992188 142.398438 113.660156 144.640625 119.496094 145.523438 C 122.429688 145.96875 125.421875 146.0625 128.367188 145.679688 C 131.015625 145.339844 134.410156 144.722656 136.613281 143.105469 C 133.882812 143.429688 131.3125 144.109375 128.503906 144.0625 C 125.703125 144.011719 122.910156 143.59375 120.199219 142.898438 C 113.863281 141.273438 108.011719 138.207031 102.375 134.960938 C 97.160156 131.953125 92.03125 128.617188 86.378906 126.472656 C 80.5625 124.265625 74.453125 123.273438 68.242188 123.292969 C 67.9375 123.296875 67.632812 123.265625 67.332031 123.207031 Z M 67.332031 123.210938 " fill-opacity="1" fill-rule="nonzero"/></g><g fill="#df6951" fill-opacity="1"><g transform="translate(62.810062, 220.6359)"><g><path d="M 19.4375 -67.625 C 20.457031 -67.625 21.457031 -67.625 22.4375 -67.625 C 23.414062 -67.625 24.332031 -67.625 25.1875 -67.625 C 25.945312 -67.28125 26.457031 -66.679688 26.71875 -65.828125 C 26.882812 -65.398438 27.007812 -64.953125 27.09375 -64.484375 C 27.1875 -64.015625 27.273438 -63.523438 27.359375 -63.015625 C 27.523438 -62.335938 27.671875 -61.632812 27.796875 -60.90625 C 27.929688 -60.1875 28.082031 -59.484375 28.25 -58.796875 C 28.59375 -57.773438 28.847656 -56.671875 29.015625 -55.484375 C 29.179688 -54.628906 29.367188 -53.816406 29.578125 -53.046875 C 29.796875 -52.273438 30.035156 -51.550781 30.296875 -50.875 C 31.316406 -47.8125 32.210938 -44.53125 32.984375 -41.03125 C 33.066406 -40.6875 33.171875 -40.34375 33.296875 -40 C 33.421875 -39.664062 33.53125 -39.285156 33.625 -38.859375 C 33.957031 -37.492188 34.316406 -36.128906 34.703125 -34.765625 C 35.085938 -33.398438 35.492188 -31.992188 35.921875 -30.546875 C 36.171875 -29.691406 36.398438 -28.835938 36.609375 -27.984375 C 36.828125 -27.140625 37.023438 -26.289062 37.203125 -25.4375 C 37.535156 -24.15625 37.804688 -22.851562 38.015625 -21.53125 C 38.234375 -20.21875 38.515625 -18.921875 38.859375 -17.640625 C 38.941406 -17.210938 39.046875 -16.785156 39.171875 -16.359375 C 39.304688 -15.929688 39.414062 -15.503906 39.5 -15.078125 C 39.75 -13.972656 40.023438 -12.820312 40.328125 -11.625 C 40.628906 -10.4375 40.90625 -9.242188 41.15625 -8.046875 C 41.238281 -7.710938 41.320312 -7.375 41.40625 -7.03125 C 41.5 -6.6875 41.585938 -6.347656 41.671875 -6.015625 C 41.835938 -5.160156 42.003906 -4.304688 42.171875 -3.453125 C 42.347656 -2.597656 42.519531 -1.742188 42.6875 -0.890625 C 42.519531 -0.460938 42.265625 -0.25 41.921875 -0.25 C 41.078125 -0.164062 40.226562 -0.0820312 39.375 0 C 38.519531 0.0820312 37.625 0.164062 36.6875 0.25 C 36 0.425781 35.445312 0.34375 35.03125 0 C 34.6875 -0.425781 34.472656 -0.851562 34.390625 -1.28125 C 34.304688 -1.707031 34.175781 -2.085938 34 -2.421875 C 33.65625 -3.703125 33.351562 -4.957031 33.09375 -6.1875 C 32.84375 -7.425781 32.550781 -8.644531 32.21875 -9.84375 C 32.125 -10.269531 32.054688 -10.671875 32.015625 -11.046875 C 31.972656 -11.429688 31.867188 -11.796875 31.703125 -12.140625 C 31.617188 -12.484375 31.53125 -12.800781 31.4375 -13.09375 C 31.351562 -13.394531 31.226562 -13.71875 31.0625 -14.0625 C 30.976562 -14.144531 30.867188 -14.207031 30.734375 -14.25 C 30.609375 -14.289062 30.460938 -14.351562 30.296875 -14.4375 C 29.703125 -14.4375 29.101562 -14.457031 28.5 -14.5 C 27.90625 -14.550781 27.3125 -14.578125 26.71875 -14.578125 C 26.375 -14.660156 25.988281 -14.679688 25.5625 -14.640625 C 25.132812 -14.597656 24.707031 -14.578125 24.28125 -14.578125 C 23.945312 -14.484375 23.476562 -14.4375 22.875 -14.4375 C 21.519531 -14.4375 20.179688 -14.414062 18.859375 -14.375 C 17.535156 -14.332031 16.148438 -14.3125 14.703125 -14.3125 C 14.441406 -14.3125 14.160156 -14.289062 13.859375 -14.25 C 13.566406 -14.207031 13.289062 -14.015625 13.03125 -13.671875 C 12.945312 -13.242188 12.863281 -12.773438 12.78125 -12.265625 C 12.695312 -11.753906 12.570312 -11.203125 12.40625 -10.609375 C 12.3125 -10.347656 12.242188 -10.066406 12.203125 -9.765625 C 12.160156 -9.472656 12.097656 -9.203125 12.015625 -8.953125 C 11.847656 -7.835938 11.632812 -6.769531 11.375 -5.75 C 11.125 -4.726562 10.867188 -3.664062 10.609375 -2.5625 C 10.523438 -2.300781 10.4375 -2.0625 10.34375 -1.84375 C 10.257812 -1.632812 10.175781 -1.445312 10.09375 -1.28125 C 9.757812 -0.851562 9.378906 -0.640625 8.953125 -0.640625 C 8.773438 -0.640625 8.238281 -0.640625 7.34375 -0.640625 C 6.457031 -0.640625 5.566406 -0.640625 4.671875 -0.640625 C 3.773438 -0.640625 3.195312 -0.640625 2.9375 -0.640625 C 2.6875 -0.804688 2.5625 -1.144531 2.5625 -1.65625 C 2.894531 -2.9375 3.1875 -4.238281 3.4375 -5.5625 C 3.695312 -6.882812 4.039062 -8.179688 4.46875 -9.453125 C 4.976562 -11.328125 5.363281 -13.078125 5.625 -14.703125 C 5.707031 -15.046875 5.789062 -15.363281 5.875 -15.65625 C 5.96875 -15.957031 6.054688 -16.28125 6.140625 -16.625 C 6.222656 -17.039062 6.285156 -17.441406 6.328125 -17.828125 C 6.367188 -18.210938 6.429688 -18.578125 6.515625 -18.921875 C 6.597656 -19.085938 6.660156 -19.273438 6.703125 -19.484375 C 6.753906 -19.703125 6.820312 -19.894531 6.90625 -20.0625 C 7.332031 -21.34375 7.710938 -22.644531 8.046875 -23.96875 C 8.390625 -25.289062 8.734375 -26.632812 9.078125 -28 C 9.242188 -28.757812 9.453125 -29.546875 9.703125 -30.359375 C 9.960938 -31.171875 10.179688 -32.003906 10.359375 -32.859375 C 10.867188 -34.816406 11.359375 -36.753906 11.828125 -38.671875 C 12.296875 -40.585938 12.742188 -42.523438 13.171875 -44.484375 C 13.421875 -45.585938 13.648438 -46.710938 13.859375 -47.859375 C 14.078125 -49.015625 14.316406 -50.148438 14.578125 -51.265625 C 14.742188 -52.023438 14.929688 -52.785156 15.140625 -53.546875 C 15.359375 -54.316406 15.59375 -55.046875 15.84375 -55.734375 C 16.269531 -57.015625 16.65625 -58.289062 17 -59.5625 C 17.34375 -60.84375 17.640625 -62.082031 17.890625 -63.28125 C 18.066406 -63.875 18.238281 -64.425781 18.40625 -64.9375 C 18.570312 -65.445312 18.703125 -65.914062 18.796875 -66.34375 C 18.878906 -66.507812 18.984375 -66.695312 19.109375 -66.90625 C 19.234375 -67.125 19.34375 -67.363281 19.4375 -67.625 Z M 29.015625 -23.265625 C 28.671875 -24.453125 28.367188 -25.617188 28.109375 -26.765625 C 27.859375 -27.921875 27.519531 -29.054688 27.09375 -30.171875 C 26.414062 -32.296875 25.773438 -34.398438 25.171875 -36.484375 C 24.578125 -38.578125 23.984375 -40.691406 23.390625 -42.828125 C 23.222656 -43.335938 23.03125 -43.867188 22.8125 -44.421875 C 22.601562 -44.972656 22.367188 -45.546875 22.109375 -46.140625 C 21.941406 -46.648438 21.6875 -46.90625 21.34375 -46.90625 C 20.914062 -46.820312 20.617188 -46.566406 20.453125 -46.140625 C 20.367188 -45.710938 20.238281 -45.265625 20.0625 -44.796875 C 19.894531 -44.328125 19.769531 -43.835938 19.6875 -43.328125 C 19.6875 -42.816406 19.644531 -42.476562 19.5625 -42.3125 C 19.21875 -40.78125 18.875 -39.242188 18.53125 -37.703125 C 18.195312 -36.171875 17.816406 -34.640625 17.390625 -33.109375 C 17.296875 -32.765625 17.25 -32.421875 17.25 -32.078125 C 17.25 -31.742188 17.164062 -31.40625 17 -31.0625 C 16.65625 -30.289062 16.375 -29.519531 16.15625 -28.75 C 15.945312 -27.988281 15.757812 -27.179688 15.59375 -26.328125 C 15.425781 -25.734375 15.296875 -25.09375 15.203125 -24.40625 C 15.117188 -23.726562 15.035156 -23.050781 14.953125 -22.375 C 15.296875 -22.195312 15.507812 -22.109375 15.59375 -22.109375 C 16.101562 -22.109375 16.59375 -22.109375 17.0625 -22.109375 C 17.53125 -22.109375 17.976562 -22.109375 18.40625 -22.109375 C 19.09375 -22.191406 19.734375 -22.253906 20.328125 -22.296875 C 20.921875 -22.347656 21.515625 -22.375 22.109375 -22.375 C 23.046875 -22.457031 24.003906 -22.519531 24.984375 -22.5625 C 25.960938 -22.601562 26.921875 -22.625 27.859375 -22.625 C 28.035156 -22.707031 28.226562 -22.75 28.4375 -22.75 C 28.65625 -22.75 28.847656 -22.921875 29.015625 -23.265625 Z M 29.015625 -23.265625 "/></g></g></g><g fill="#df6951" fill-opacity="1"><g transform="translate(108.061234, 220.6359)"><g><path d="M 19.4375 -67.625 C 20.457031 -67.625 21.457031 -67.625 22.4375 -67.625 C 23.414062 -67.625 24.332031 -67.625 25.1875 -67.625 C 25.945312 -67.28125 26.457031 -66.679688 26.71875 -65.828125 C 26.882812 -65.398438 27.007812 -64.953125 27.09375 -64.484375 C 27.1875 -64.015625 27.273438 -63.523438 27.359375 -63.015625 C 27.523438 -62.335938 27.671875 -61.632812 27.796875 -60.90625 C 27.929688 -60.1875 28.082031 -59.484375 28.25 -58.796875 C 28.59375 -57.773438 28.847656 -56.671875 29.015625 -55.484375 C 29.179688 -54.628906 29.367188 -53.816406 29.578125 -53.046875 C 29.796875 -52.273438 30.035156 -51.550781 30.296875 -50.875 C 31.316406 -47.8125 32.210938 -44.53125 32.984375 -41.03125 C 33.066406 -40.6875 33.171875 -40.34375 33.296875 -40 C 33.421875 -39.664062 33.53125 -39.285156 33.625 -38.859375 C 33.957031 -37.492188 34.316406 -36.128906 34.703125 -34.765625 C 35.085938 -33.398438 35.492188 -31.992188 35.921875 -30.546875 C 36.171875 -29.691406 36.398438 -28.835938 36.609375 -27.984375 C 36.828125 -27.140625 37.023438 -26.289062 37.203125 -25.4375 C 37.535156 -24.15625 37.804688 -22.851562 38.015625 -21.53125 C 38.234375 -20.21875 38.515625 -18.921875 38.859375 -17.640625 C 38.941406 -17.210938 39.046875 -16.785156 39.171875 -16.359375 C 39.304688 -15.929688 39.414062 -15.503906 39.5 -15.078125 C 39.75 -13.972656 40.023438 -12.820312 40.328125 -11.625 C 40.628906 -10.4375 40.90625 -9.242188 41.15625 -8.046875 C 41.238281 -7.710938 41.320312 -7.375 41.40625 -7.03125 C 41.5 -6.6875 41.585938 -6.347656 41.671875 -6.015625 C 41.835938 -5.160156 42.003906 -4.304688 42.171875 -3.453125 C 42.347656 -2.597656 42.519531 -1.742188 42.6875 -0.890625 C 42.519531 -0.460938 42.265625 -0.25 41.921875 -0.25 C 41.078125 -0.164062 40.226562 -0.0820312 39.375 0 C 38.519531 0.0820312 37.625 0.164062 36.6875 0.25 C 36 0.425781 35.445312 0.34375 35.03125 0 C 34.6875 -0.425781 34.472656 -0.851562 34.390625 -1.28125 C 34.304688 -1.707031 34.175781 -2.085938 34 -2.421875 C 33.65625 -3.703125 33.351562 -4.957031 33.09375 -6.1875 C 32.84375 -7.425781 32.550781 -8.644531 32.21875 -9.84375 C 32.125 -10.269531 32.054688 -10.671875 32.015625 -11.046875 C 31.972656 -11.429688 31.867188 -11.796875 31.703125 -12.140625 C 31.617188 -12.484375 31.53125 -12.800781 31.4375 -13.09375 C 31.351562 -13.394531 31.226562 -13.71875 31.0625 -14.0625 C 30.976562 -14.144531 30.867188 -14.207031 30.734375 -14.25 C 30.609375 -14.289062 30.460938 -14.351562 30.296875 -14.4375 C 29.703125 -14.4375 29.101562 -14.457031 28.5 -14.5 C 27.90625 -14.550781 27.3125 -14.578125 26.71875 -14.578125 C 26.375 -14.660156 25.988281 -14.679688 25.5625 -14.640625 C 25.132812 -14.597656 24.707031 -14.578125 24.28125 -14.578125 C 23.945312 -14.484375 23.476562 -14.4375 22.875 -14.4375 C 21.519531 -14.4375 20.179688 -14.414062 18.859375 -14.375 C 17.535156 -14.332031 16.148438 -14.3125 14.703125 -14.3125 C 14.441406 -14.3125 14.160156 -14.289062 13.859375 -14.25 C 13.566406 -14.207031 13.289062 -14.015625 13.03125 -13.671875 C 12.945312 -13.242188 12.863281 -12.773438 12.78125 -12.265625 C 12.695312 -11.753906 12.570312 -11.203125 12.40625 -10.609375 C 12.3125 -10.347656 12.242188 -10.066406 12.203125 -9.765625 C 12.160156 -9.472656 12.097656 -9.203125 12.015625 -8.953125 C 11.847656 -7.835938 11.632812 -6.769531 11.375 -5.75 C 11.125 -4.726562 10.867188 -3.664062 10.609375 -2.5625 C 10.523438 -2.300781 10.4375 -2.0625 10.34375 -1.84375 C 10.257812 -1.632812 10.175781 -1.445312 10.09375 -1.28125 C 9.757812 -0.851562 9.378906 -0.640625 8.953125 -0.640625 C 8.773438 -0.640625 8.238281 -0.640625 7.34375 -0.640625 C 6.457031 -0.640625 5.566406 -0.640625 4.671875 -0.640625 C 3.773438 -0.640625 3.195312 -0.640625 2.9375 -0.640625 C 2.6875 -0.804688 2.5625 -1.144531 2.5625 -1.65625 C 2.894531 -2.9375 3.1875 -4.238281 3.4375 -5.5625 C 3.695312 -6.882812 4.039062 -8.179688 4.46875 -9.453125 C 4.976562 -11.328125 5.363281 -13.078125 5.625 -14.703125 C 5.707031 -15.046875 5.789062 -15.363281 5.875 -15.65625 C 5.96875 -15.957031 6.054688 -16.28125 6.140625 -16.625 C 6.222656 -17.039062 6.285156 -17.441406 6.328125 -17.828125 C 6.367188 -18.210938 6.429688 -18.578125 6.515625 -18.921875 C 6.597656 -19.085938 6.660156 -19.273438 6.703125 -19.484375 C 6.753906 -19.703125 6.820312 -19.894531 6.90625 -20.0625 C 7.332031 -21.34375 7.710938 -22.644531 8.046875 -23.96875 C 8.390625 -25.289062 8.734375 -26.632812 9.078125 -28 C 9.242188 -28.757812 9.453125 -29.546875 9.703125 -30.359375 C 9.960938 -31.171875 10.179688 -32.003906 10.359375 -32.859375 C 10.867188 -34.816406 11.359375 -36.753906 11.828125 -38.671875 C 12.296875 -40.585938 12.742188 -42.523438 13.171875 -44.484375 C 13.421875 -45.585938 13.648438 -46.710938 13.859375 -47.859375 C 14.078125 -49.015625 14.316406 -50.148438 14.578125 -51.265625 C 14.742188 -52.023438 14.929688 -52.785156 15.140625 -53.546875 C 15.359375 -54.316406 15.59375 -55.046875 15.84375 -55.734375 C 16.269531 -57.015625 16.65625 -58.289062 17 -59.5625 C 17.34375 -60.84375 17.640625 -62.082031 17.890625 -63.28125 C 18.066406 -63.875 18.238281 -64.425781 18.40625 -64.9375 C 18.570312 -65.445312 18.703125 -65.914062 18.796875 -66.34375 C 18.878906 -66.507812 18.984375 -66.695312 19.109375 -66.90625 C 19.234375 -67.125 19.34375 -67.363281 19.4375 -67.625 Z M 29.015625 -23.265625 C 28.671875 -24.453125 28.367188 -25.617188 28.109375 -26.765625 C 27.859375 -27.921875 27.519531 -29.054688 27.09375 -30.171875 C 26.414062 -32.296875 25.773438 -34.398438 25.171875 -36.484375 C 24.578125 -38.578125 23.984375 -40.691406 23.390625 -42.828125 C 23.222656 -43.335938 23.03125 -43.867188 22.8125 -44.421875 C 22.601562 -44.972656 22.367188 -45.546875 22.109375 -46.140625 C 21.941406 -46.648438 21.6875 -46.90625 21.34375 -46.90625 C 20.914062 -46.820312 20.617188 -46.566406 20.453125 -46.140625 C 20.367188 -45.710938 20.238281 -45.265625 20.0625 -44.796875 C 19.894531 -44.328125 19.769531 -43.835938 19.6875 -43.328125 C 19.6875 -42.816406 19.644531 -42.476562 19.5625 -42.3125 C 19.21875 -40.78125 18.875 -39.242188 18.53125 -37.703125 C 18.195312 -36.171875 17.816406 -34.640625 17.390625 -33.109375 C 17.296875 -32.765625 17.25 -32.421875 17.25 -32.078125 C 17.25 -31.742188 17.164062 -31.40625 17 -31.0625 C 16.65625 -30.289062 16.375 -29.519531 16.15625 -28.75 C 15.945312 -27.988281 15.757812 -27.179688 15.59375 -26.328125 C 15.425781 -25.734375 15.296875 -25.09375 15.203125 -24.40625 C 15.117188 -23.726562 15.035156 -23.050781 14.953125 -22.375 C 15.296875 -22.195312 15.507812 -22.109375 15.59375 -22.109375 C 16.101562 -22.109375 16.59375 -22.109375 17.0625 -22.109375 C 17.53125 -22.109375 17.976562 -22.109375 18.40625 -22.109375 C 19.09375 -22.191406 19.734375 -22.253906 20.328125 -22.296875 C 20.921875 -22.347656 21.515625 -22.375 22.109375 -22.375 C 23.046875 -22.457031 24.003906 -22.519531 24.984375 -22.5625 C 25.960938 -22.601562 26.921875 -22.625 27.859375 -22.625 C 28.035156 -22.707031 28.226562 -22.75 28.4375 -22.75 C 28.65625 -22.75 28.847656 -22.921875 29.015625 -23.265625 Z M 29.015625 -23.265625 "/></g></g></g><g fill="#df6951" fill-opacity="1"><g transform="translate(153.312406, 220.6359)"><g><path d="M 30.546875 -68.765625 C 30.722656 -68.597656 30.9375 -68.515625 31.1875 -68.515625 C 31.445312 -68.515625 31.703125 -68.515625 31.953125 -68.515625 C 32.722656 -68.515625 33.46875 -68.40625 34.1875 -68.1875 C 34.914062 -67.976562 35.617188 -67.660156 36.296875 -67.234375 C 37.328125 -66.640625 38.007812 -65.789062 38.34375 -64.6875 C 38.601562 -63.832031 38.816406 -62.976562 38.984375 -62.125 C 39.160156 -61.269531 39.25 -60.375 39.25 -59.4375 C 39.25 -58.582031 39.25 -57.75 39.25 -56.9375 C 39.25 -56.132812 39.25 -55.347656 39.25 -54.578125 C 38.90625 -54.066406 38.476562 -53.8125 37.96875 -53.8125 C 36.09375 -53.5625 34.175781 -53.4375 32.21875 -53.4375 C 32.125 -53.4375 32.035156 -53.457031 31.953125 -53.5 C 31.867188 -53.539062 31.828125 -53.5625 31.828125 -53.5625 C 31.578125 -53.726562 31.363281 -54.023438 31.1875 -54.453125 C 31.1875 -55.390625 31.0625 -56.367188 30.8125 -57.390625 C 30.71875 -58.671875 29.992188 -59.484375 28.640625 -59.828125 C 28.460938 -59.828125 28.242188 -59.847656 27.984375 -59.890625 C 27.734375 -59.929688 27.523438 -59.953125 27.359375 -59.953125 C 25.734375 -59.953125 24.132812 -59.953125 22.5625 -59.953125 C 20.988281 -59.953125 19.390625 -59.867188 17.765625 -59.703125 C 17.335938 -59.703125 16.867188 -59.703125 16.359375 -59.703125 C 15.847656 -59.703125 15.335938 -59.65625 14.828125 -59.5625 C 14.398438 -59.5625 14.0625 -59.519531 13.8125 -59.4375 C 12.957031 -59.1875 12.53125 -58.632812 12.53125 -57.78125 C 12.445312 -56.925781 12.378906 -56.09375 12.328125 -55.28125 C 12.285156 -54.476562 12.222656 -53.648438 12.140625 -52.796875 C 12.054688 -52.285156 12.015625 -51.769531 12.015625 -51.25 C 12.015625 -50.738281 11.929688 -50.273438 11.765625 -49.859375 C 11.671875 -49.347656 11.601562 -48.832031 11.5625 -48.3125 C 11.519531 -47.800781 11.5 -47.332031 11.5 -46.90625 C 11.5 -45.457031 11.5 -43.988281 11.5 -42.5 C 11.5 -41.007812 11.5 -39.539062 11.5 -38.09375 C 11.5 -36.988281 11.476562 -35.921875 11.4375 -34.890625 C 11.394531 -33.867188 11.332031 -32.804688 11.25 -31.703125 C 11.164062 -30.171875 11.125 -28.65625 11.125 -27.15625 C 11.125 -25.664062 11.125 -24.15625 11.125 -22.625 C 11.207031 -21.519531 11.207031 -20.453125 11.125 -19.421875 C 11.039062 -18.398438 11 -17.378906 11 -16.359375 C 11 -15.503906 10.972656 -14.628906 10.921875 -13.734375 C 10.878906 -12.847656 10.859375 -11.9375 10.859375 -11 C 10.859375 -10.820312 10.859375 -10.625 10.859375 -10.40625 C 10.859375 -10.195312 10.859375 -10.007812 10.859375 -9.84375 C 11.035156 -9.070312 11.421875 -8.644531 12.015625 -8.5625 C 12.359375 -8.394531 12.65625 -8.3125 12.90625 -8.3125 C 13.414062 -8.226562 13.925781 -8.140625 14.4375 -8.046875 C 14.957031 -7.960938 15.515625 -7.921875 16.109375 -7.921875 C 16.785156 -7.921875 17.460938 -7.921875 18.140625 -7.921875 C 18.828125 -7.921875 19.46875 -7.921875 20.0625 -7.921875 C 20.320312 -7.921875 20.597656 -7.941406 20.890625 -7.984375 C 21.191406 -8.023438 21.472656 -8.046875 21.734375 -8.046875 C 21.898438 -8.046875 22.023438 -8.066406 22.109375 -8.109375 C 22.191406 -8.160156 22.28125 -8.1875 22.375 -8.1875 C 23.476562 -8.09375 24.539062 -8.109375 25.5625 -8.234375 C 26.582031 -8.367188 27.648438 -8.476562 28.765625 -8.5625 C 29.617188 -8.5625 30.300781 -8.773438 30.8125 -9.203125 C 31.0625 -9.878906 31.1875 -10.476562 31.1875 -11 C 31.1875 -12.613281 31.1875 -14.207031 31.1875 -15.78125 C 31.1875 -17.363281 31.1875 -18.960938 31.1875 -20.578125 C 31.1875 -21.171875 30.929688 -21.640625 30.421875 -21.984375 C 30.171875 -22.066406 29.785156 -22.109375 29.265625 -22.109375 C 28.421875 -22.109375 27.59375 -22.109375 26.78125 -22.109375 C 25.96875 -22.109375 25.132812 -22.109375 24.28125 -22.109375 C 23.519531 -22.109375 22.882812 -22.320312 22.375 -22.75 C 22.195312 -22.925781 22.109375 -23.179688 22.109375 -23.515625 C 22.023438 -24.710938 21.984375 -25.84375 21.984375 -26.90625 C 21.984375 -27.96875 21.984375 -29.054688 21.984375 -30.171875 C 22.328125 -30.503906 22.710938 -30.691406 23.140625 -30.734375 C 23.566406 -30.785156 23.945312 -30.851562 24.28125 -30.9375 C 24.375 -30.9375 24.503906 -30.9375 24.671875 -30.9375 C 24.835938 -30.9375 24.960938 -30.9375 25.046875 -30.9375 C 27.015625 -30.9375 28.957031 -30.9375 30.875 -30.9375 C 32.789062 -30.9375 34.6875 -30.9375 36.5625 -30.9375 C 36.988281 -30.9375 37.367188 -30.914062 37.703125 -30.875 C 38.046875 -30.832031 38.390625 -30.722656 38.734375 -30.546875 C 38.898438 -30.296875 38.984375 -30.039062 38.984375 -29.78125 C 38.984375 -29.53125 38.984375 -29.316406 38.984375 -29.140625 C 38.984375 -28.035156 38.960938 -26.925781 38.921875 -25.8125 C 38.878906 -24.707031 38.898438 -23.5625 38.984375 -22.375 C 39.066406 -21.257812 39.128906 -20.125 39.171875 -18.96875 C 39.222656 -17.820312 39.289062 -16.65625 39.375 -15.46875 C 39.539062 -13.675781 39.539062 -11.84375 39.375 -9.96875 C 39.289062 -9.457031 39.25 -8.945312 39.25 -8.4375 C 39.25 -7.925781 39.25 -7.414062 39.25 -6.90625 C 39.15625 -4.4375 37.957031 -2.601562 35.65625 -1.40625 C 35.0625 -1.144531 34.46875 -0.929688 33.875 -0.765625 C 33.28125 -0.597656 32.640625 -0.515625 31.953125 -0.515625 C 28.972656 -0.597656 25.96875 -0.617188 22.9375 -0.578125 C 19.914062 -0.535156 16.914062 -0.515625 13.9375 -0.515625 C 12.914062 -0.597656 11.890625 -0.640625 10.859375 -0.640625 C 9.835938 -0.640625 8.816406 -0.679688 7.796875 -0.765625 C 6.003906 -1.023438 4.726562 -1.921875 3.96875 -3.453125 C 3.03125 -5.160156 2.601562 -6.863281 2.6875 -8.5625 C 2.769531 -10.351562 2.8125 -12.117188 2.8125 -13.859375 C 2.8125 -15.609375 2.851562 -17.378906 2.9375 -19.171875 C 2.9375 -20.535156 2.9375 -21.898438 2.9375 -23.265625 C 2.9375 -24.628906 2.9375 -25.992188 2.9375 -27.359375 C 2.9375 -28.804688 2.9375 -30.273438 2.9375 -31.765625 C 2.9375 -33.253906 2.976562 -34.679688 3.0625 -36.046875 C 3.238281 -36.554688 3.238281 -37.023438 3.0625 -37.453125 C 2.976562 -38.128906 2.9375 -38.832031 2.9375 -39.5625 C 2.9375 -40.289062 2.9375 -41.035156 2.9375 -41.796875 C 2.9375 -42.648438 2.9375 -43.503906 2.9375 -44.359375 C 2.9375 -45.210938 2.976562 -46.0625 3.0625 -46.90625 C 3.15625 -47.164062 3.203125 -47.507812 3.203125 -47.9375 C 3.203125 -49.21875 3.203125 -50.515625 3.203125 -51.828125 C 3.203125 -53.148438 3.203125 -54.453125 3.203125 -55.734375 C 3.285156 -56.242188 3.347656 -56.753906 3.390625 -57.265625 C 3.429688 -57.773438 3.453125 -58.285156 3.453125 -58.796875 C 3.453125 -59.484375 3.453125 -60.125 3.453125 -60.71875 C 3.453125 -61.3125 3.492188 -61.910156 3.578125 -62.515625 C 3.578125 -62.679688 3.578125 -62.847656 3.578125 -63.015625 C 3.578125 -63.191406 3.578125 -63.320312 3.578125 -63.40625 C 3.742188 -65.707031 4.9375 -67.070312 7.15625 -67.5 C 7.664062 -67.664062 8.175781 -67.789062 8.6875 -67.875 C 9.195312 -67.957031 9.707031 -68.039062 10.21875 -68.125 C 10.394531 -68.21875 10.585938 -68.238281 10.796875 -68.1875 C 11.015625 -68.144531 11.207031 -68.171875 11.375 -68.265625 C 11.882812 -68.265625 12.394531 -68.265625 12.90625 -68.265625 C 13.414062 -68.265625 13.925781 -68.265625 14.4375 -68.265625 C 14.863281 -68.265625 15.269531 -68.285156 15.65625 -68.328125 C 16.039062 -68.367188 16.445312 -68.390625 16.875 -68.390625 C 17.550781 -68.472656 18.226562 -68.515625 18.90625 -68.515625 C 19.59375 -68.515625 20.28125 -68.554688 20.96875 -68.640625 C 21.132812 -68.640625 21.320312 -68.640625 21.53125 -68.640625 C 21.75 -68.640625 21.898438 -68.679688 21.984375 -68.765625 C 23.429688 -68.765625 24.878906 -68.765625 26.328125 -68.765625 C 27.773438 -68.765625 29.179688 -68.765625 30.546875 -68.765625 Z M 30.546875 -68.765625 "/></g></g></g><g fill="#df6951" fill-opacity="1"><g transform="translate(195.367873, 220.6359)"><g><path d="M 19.4375 -67.625 C 20.457031 -67.625 21.457031 -67.625 22.4375 -67.625 C 23.414062 -67.625 24.332031 -67.625 25.1875 -67.625 C 25.945312 -67.28125 26.457031 -66.679688 26.71875 -65.828125 C 26.882812 -65.398438 27.007812 -64.953125 27.09375 -64.484375 C 27.1875 -64.015625 27.273438 -63.523438 27.359375 -63.015625 C 27.523438 -62.335938 27.671875 -61.632812 27.796875 -60.90625 C 27.929688 -60.1875 28.082031 -59.484375 28.25 -58.796875 C 28.59375 -57.773438 28.847656 -56.671875 29.015625 -55.484375 C 29.179688 -54.628906 29.367188 -53.816406 29.578125 -53.046875 C 29.796875 -52.273438 30.035156 -51.550781 30.296875 -50.875 C 31.316406 -47.8125 32.210938 -44.53125 32.984375 -41.03125 C 33.066406 -40.6875 33.171875 -40.34375 33.296875 -40 C 33.421875 -39.664062 33.53125 -39.285156 33.625 -38.859375 C 33.957031 -37.492188 34.316406 -36.128906 34.703125 -34.765625 C 35.085938 -33.398438 35.492188 -31.992188 35.921875 -30.546875 C 36.171875 -29.691406 36.398438 -28.835938 36.609375 -27.984375 C 36.828125 -27.140625 37.023438 -26.289062 37.203125 -25.4375 C 37.535156 -24.15625 37.804688 -22.851562 38.015625 -21.53125 C 38.234375 -20.21875 38.515625 -18.921875 38.859375 -17.640625 C 38.941406 -17.210938 39.046875 -16.785156 39.171875 -16.359375 C 39.304688 -15.929688 39.414062 -15.503906 39.5 -15.078125 C 39.75 -13.972656 40.023438 -12.820312 40.328125 -11.625 C 40.628906 -10.4375 40.90625 -9.242188 41.15625 -8.046875 C 41.238281 -7.710938 41.320312 -7.375 41.40625 -7.03125 C 41.5 -6.6875 41.585938 -6.347656 41.671875 -6.015625 C 41.835938 -5.160156 42.003906 -4.304688 42.171875 -3.453125 C 42.347656 -2.597656 42.519531 -1.742188 42.6875 -0.890625 C 42.519531 -0.460938 42.265625 -0.25 41.921875 -0.25 C 41.078125 -0.164062 40.226562 -0.0820312 39.375 0 C 38.519531 0.0820312 37.625 0.164062 36.6875 0.25 C 36 0.425781 35.445312 0.34375 35.03125 0 C 34.6875 -0.425781 34.472656 -0.851562 34.390625 -1.28125 C 34.304688 -1.707031 34.175781 -2.085938 34 -2.421875 C 33.65625 -3.703125 33.351562 -4.957031 33.09375 -6.1875 C 32.84375 -7.425781 32.550781 -8.644531 32.21875 -9.84375 C 32.125 -10.269531 32.054688 -10.671875 32.015625 -11.046875 C 31.972656 -11.429688 31.867188 -11.796875 31.703125 -12.140625 C 31.617188 -12.484375 31.53125 -12.800781 31.4375 -13.09375 C 31.351562 -13.394531 31.226562 -13.71875 31.0625 -14.0625 C 30.976562 -14.144531 30.867188 -14.207031 30.734375 -14.25 C 30.609375 -14.289062 30.460938 -14.351562 30.296875 -14.4375 C 29.703125 -14.4375 29.101562 -14.457031 28.5 -14.5 C 27.90625 -14.550781 27.3125 -14.578125 26.71875 -14.578125 C 26.375 -14.660156 25.988281 -14.679688 25.5625 -14.640625 C 25.132812 -14.597656 24.707031 -14.578125 24.28125 -14.578125 C 23.945312 -14.484375 23.476562 -14.4375 22.875 -14.4375 C 21.519531 -14.4375 20.179688 -14.414062 18.859375 -14.375 C 17.535156 -14.332031 16.148438 -14.3125 14.703125 -14.3125 C 14.441406 -14.3125 14.160156 -14.289062 13.859375 -14.25 C 13.566406 -14.207031 13.289062 -14.015625 13.03125 -13.671875 C 12.945312 -13.242188 12.863281 -12.773438 12.78125 -12.265625 C 12.695312 -11.753906 12.570312 -11.203125 12.40625 -10.609375 C 12.3125 -10.347656 12.242188 -10.066406 12.203125 -9.765625 C 12.160156 -9.472656 12.097656 -9.203125 12.015625 -8.953125 C 11.847656 -7.835938 11.632812 -6.769531 11.375 -5.75 C 11.125 -4.726562 10.867188 -3.664062 10.609375 -2.5625 C 10.523438 -2.300781 10.4375 -2.0625 10.34375 -1.84375 C 10.257812 -1.632812 10.175781 -1.445312 10.09375 -1.28125 C 9.757812 -0.851562 9.378906 -0.640625 8.953125 -0.640625 C 8.773438 -0.640625 8.238281 -0.640625 7.34375 -0.640625 C 6.457031 -0.640625 5.566406 -0.640625 4.671875 -0.640625 C 3.773438 -0.640625 3.195312 -0.640625 2.9375 -0.640625 C 2.6875 -0.804688 2.5625 -1.144531 2.5625 -1.65625 C 2.894531 -2.9375 3.1875 -4.238281 3.4375 -5.5625 C 3.695312 -6.882812 4.039062 -8.179688 4.46875 -9.453125 C 4.976562 -11.328125 5.363281 -13.078125 5.625 -14.703125 C 5.707031 -15.046875 5.789062 -15.363281 5.875 -15.65625 C 5.96875 -15.957031 6.054688 -16.28125 6.140625 -16.625 C 6.222656 -17.039062 6.285156 -17.441406 6.328125 -17.828125 C 6.367188 -18.210938 6.429688 -18.578125 6.515625 -18.921875 C 6.597656 -19.085938 6.660156 -19.273438 6.703125 -19.484375 C 6.753906 -19.703125 6.820312 -19.894531 6.90625 -20.0625 C 7.332031 -21.34375 7.710938 -22.644531 8.046875 -23.96875 C 8.390625 -25.289062 8.734375 -26.632812 9.078125 -28 C 9.242188 -28.757812 9.453125 -29.546875 9.703125 -30.359375 C 9.960938 -31.171875 10.179688 -32.003906 10.359375 -32.859375 C 10.867188 -34.816406 11.359375 -36.753906 11.828125 -38.671875 C 12.296875 -40.585938 12.742188 -42.523438 13.171875 -44.484375 C 13.421875 -45.585938 13.648438 -46.710938 13.859375 -47.859375 C 14.078125 -49.015625 14.316406 -50.148438 14.578125 -51.265625 C 14.742188 -52.023438 14.929688 -52.785156 15.140625 -53.546875 C 15.359375 -54.316406 15.59375 -55.046875 15.84375 -55.734375 C 16.269531 -57.015625 16.65625 -58.289062 17 -59.5625 C 17.34375 -60.84375 17.640625 -62.082031 17.890625 -63.28125 C 18.066406 -63.875 18.238281 -64.425781 18.40625 -64.9375 C 18.570312 -65.445312 18.703125 -65.914062 18.796875 -66.34375 C 18.878906 -66.507812 18.984375 -66.695312 19.109375 -66.90625 C 19.234375 -67.125 19.34375 -67.363281 19.4375 -67.625 Z M 29.015625 -23.265625 C 28.671875 -24.453125 28.367188 -25.617188 28.109375 -26.765625 C 27.859375 -27.921875 27.519531 -29.054688 27.09375 -30.171875 C 26.414062 -32.296875 25.773438 -34.398438 25.171875 -36.484375 C 24.578125 -38.578125 23.984375 -40.691406 23.390625 -42.828125 C 23.222656 -43.335938 23.03125 -43.867188 22.8125 -44.421875 C 22.601562 -44.972656 22.367188 -45.546875 22.109375 -46.140625 C 21.941406 -46.648438 21.6875 -46.90625 21.34375 -46.90625 C 20.914062 -46.820312 20.617188 -46.566406 20.453125 -46.140625 C 20.367188 -45.710938 20.238281 -45.265625 20.0625 -44.796875 C 19.894531 -44.328125 19.769531 -43.835938 19.6875 -43.328125 C 19.6875 -42.816406 19.644531 -42.476562 19.5625 -42.3125 C 19.21875 -40.78125 18.875 -39.242188 18.53125 -37.703125 C 18.195312 -36.171875 17.816406 -34.640625 17.390625 -33.109375 C 17.296875 -32.765625 17.25 -32.421875 17.25 -32.078125 C 17.25 -31.742188 17.164062 -31.40625 17 -31.0625 C 16.65625 -30.289062 16.375 -29.519531 16.15625 -28.75 C 15.945312 -27.988281 15.757812 -27.179688 15.59375 -26.328125 C 15.425781 -25.734375 15.296875 -25.09375 15.203125 -24.40625 C 15.117188 -23.726562 15.035156 -23.050781 14.953125 -22.375 C 15.296875 -22.195312 15.507812 -22.109375 15.59375 -22.109375 C 16.101562 -22.109375 16.59375 -22.109375 17.0625 -22.109375 C 17.53125 -22.109375 17.976562 -22.109375 18.40625 -22.109375 C 19.09375 -22.191406 19.734375 -22.253906 20.328125 -22.296875 C 20.921875 -22.347656 21.515625 -22.375 22.109375 -22.375 C 23.046875 -22.457031 24.003906 -22.519531 24.984375 -22.5625 C 25.960938 -22.601562 26.921875 -22.625 27.859375 -22.625 C 28.035156 -22.707031 28.226562 -22.75 28.4375 -22.75 C 28.65625 -22.75 28.847656 -22.921875 29.015625 -23.265625 Z M 29.015625 -23.265625 "/></g></g></g><g fill="#df6951" fill-opacity="1"><g transform="translate(240.619045, 220.6359)"><g><path d="M 40.390625 -0.125 C 40.046875 0.125 39.664062 0.25 39.25 0.25 C 38.644531 0.34375 38.046875 0.363281 37.453125 0.3125 C 36.859375 0.269531 36.21875 0.164062 35.53125 0 C 34.34375 -0.257812 33.535156 -0.898438 33.109375 -1.921875 C 32.941406 -2.347656 32.726562 -2.796875 32.46875 -3.265625 C 32.207031 -3.734375 31.992188 -4.179688 31.828125 -4.609375 C 31.484375 -5.203125 31.179688 -5.773438 30.921875 -6.328125 C 30.671875 -6.878906 30.378906 -7.453125 30.046875 -8.046875 C 29.785156 -8.648438 29.523438 -9.226562 29.265625 -9.78125 C 29.015625 -10.332031 28.757812 -10.863281 28.5 -11.375 C 28.164062 -12.3125 27.804688 -13.25 27.421875 -14.1875 C 27.035156 -15.125 26.628906 -16.019531 26.203125 -16.875 C 26.117188 -17.039062 26.035156 -17.207031 25.953125 -17.375 C 25.867188 -17.550781 25.828125 -17.679688 25.828125 -17.765625 C 25.484375 -18.878906 25.054688 -19.925781 24.546875 -20.90625 C 24.035156 -21.882812 23.523438 -22.882812 23.015625 -23.90625 C 22.835938 -24.25 22.707031 -24.460938 22.625 -24.546875 C 22.03125 -25.484375 21.453125 -26.441406 20.890625 -27.421875 C 20.335938 -28.398438 19.851562 -29.359375 19.4375 -30.296875 C 19.257812 -30.804688 19.039062 -31.316406 18.78125 -31.828125 C 18.53125 -32.335938 18.320312 -32.804688 18.15625 -33.234375 C 18.070312 -33.398438 17.984375 -33.566406 17.890625 -33.734375 C 17.804688 -33.910156 17.722656 -34.085938 17.640625 -34.265625 C 17.296875 -34.859375 16.972656 -35.429688 16.671875 -35.984375 C 16.378906 -36.535156 16.0625 -37.109375 15.71875 -37.703125 C 15.382812 -38.390625 15.046875 -39.050781 14.703125 -39.6875 C 14.359375 -40.332031 14.015625 -40.953125 13.671875 -41.546875 C 13.585938 -41.710938 13.4375 -41.898438 13.21875 -42.109375 C 13.007812 -42.328125 12.738281 -42.476562 12.40625 -42.5625 C 11.976562 -42.394531 11.765625 -42.140625 11.765625 -41.796875 C 11.765625 -41.367188 11.738281 -40.941406 11.6875 -40.515625 C 11.644531 -40.085938 11.625 -39.664062 11.625 -39.25 C 11.539062 -38.3125 11.5 -37.347656 11.5 -36.359375 C 11.5 -35.378906 11.5 -34.421875 11.5 -33.484375 C 11.414062 -33.148438 11.375 -32.8125 11.375 -32.46875 C 11.375 -32.125 11.332031 -31.785156 11.25 -31.453125 C 11.25 -30.847656 11.25 -30.25 11.25 -29.65625 C 11.25 -29.0625 11.207031 -28.460938 11.125 -27.859375 C 11.125 -27.015625 11.144531 -26.1875 11.1875 -25.375 C 11.226562 -24.5625 11.207031 -23.773438 11.125 -23.015625 C 11.039062 -21.390625 10.972656 -19.765625 10.921875 -18.140625 C 10.878906 -16.523438 10.859375 -14.910156 10.859375 -13.296875 C 10.859375 -11.847656 10.859375 -10.375 10.859375 -8.875 C 10.859375 -7.382812 10.859375 -5.914062 10.859375 -4.46875 C 10.859375 -3.957031 10.859375 -3.445312 10.859375 -2.9375 C 10.859375 -2.425781 10.859375 -1.914062 10.859375 -1.40625 C 10.773438 -1.238281 10.691406 -1.066406 10.609375 -0.890625 C 10.523438 -0.722656 10.394531 -0.554688 10.21875 -0.390625 C 10.132812 -0.296875 10.007812 -0.25 9.84375 -0.25 C 9.25 -0.25 8.671875 -0.25 8.109375 -0.25 C 7.554688 -0.25 6.984375 -0.164062 6.390625 0 C 6.046875 0.0820312 5.660156 0.101562 5.234375 0.0625 C 4.816406 0.0195312 4.394531 0 3.96875 0 C 3.875 0 3.785156 0 3.703125 0 C 3.617188 0 3.535156 0 3.453125 0 C 3.109375 -0.164062 2.9375 -0.25 2.9375 -0.25 C 2.769531 -0.507812 2.6875 -0.742188 2.6875 -0.953125 C 2.6875 -1.171875 2.644531 -1.363281 2.5625 -1.53125 C 2.5625 -2.726562 2.5625 -3.921875 2.5625 -5.109375 C 2.5625 -6.304688 2.5625 -7.457031 2.5625 -8.5625 C 2.5625 -10.09375 2.5625 -11.644531 2.5625 -13.21875 C 2.5625 -14.800781 2.601562 -16.359375 2.6875 -17.890625 C 2.6875 -19.941406 2.664062 -22.007812 2.625 -24.09375 C 2.582031 -26.1875 2.5625 -28.296875 2.5625 -30.421875 C 2.5625 -32.128906 2.5625 -33.851562 2.5625 -35.59375 C 2.5625 -37.34375 2.601562 -39.070312 2.6875 -40.78125 C 2.6875 -41.71875 2.664062 -42.695312 2.625 -43.71875 C 2.582031 -44.738281 2.5625 -45.71875 2.5625 -46.65625 C 2.5625 -49.632812 2.5625 -52.632812 2.5625 -55.65625 C 2.5625 -58.6875 2.5625 -61.695312 2.5625 -64.6875 C 2.5625 -65.101562 2.601562 -65.398438 2.6875 -65.578125 C 2.6875 -66.085938 3.023438 -66.640625 3.703125 -67.234375 C 4.304688 -67.316406 4.882812 -67.398438 5.4375 -67.484375 C 5.988281 -67.578125 6.5625 -67.535156 7.15625 -67.359375 C 7.582031 -67.273438 7.988281 -67.253906 8.375 -67.296875 C 8.757812 -67.335938 9.117188 -67.316406 9.453125 -67.234375 C 9.960938 -67.066406 10.347656 -66.769531 10.609375 -66.34375 C 10.773438 -66 10.960938 -65.65625 11.171875 -65.3125 C 11.390625 -64.976562 11.585938 -64.597656 11.765625 -64.171875 C 12.191406 -63.148438 12.613281 -62.148438 13.03125 -61.171875 C 13.457031 -60.191406 13.882812 -59.234375 14.3125 -58.296875 C 14.820312 -57.265625 15.351562 -56.28125 15.90625 -55.34375 C 16.46875 -54.40625 17.003906 -53.46875 17.515625 -52.53125 C 17.679688 -52.195312 17.890625 -51.859375 18.140625 -51.515625 C 18.398438 -51.171875 18.570312 -50.828125 18.65625 -50.484375 C 19.257812 -49.296875 19.898438 -48.144531 20.578125 -47.03125 C 21.265625 -45.925781 21.90625 -44.820312 22.5 -43.71875 C 23.007812 -42.78125 23.519531 -41.84375 24.03125 -40.90625 C 24.539062 -39.96875 25.007812 -39.03125 25.4375 -38.09375 C 25.945312 -37.15625 26.476562 -36.21875 27.03125 -35.28125 C 27.582031 -34.34375 28.117188 -33.40625 28.640625 -32.46875 C 29.054688 -31.875 29.457031 -31.234375 29.84375 -30.546875 C 30.226562 -29.867188 30.59375 -29.1875 30.9375 -28.5 C 31.101562 -28.332031 31.1875 -28.164062 31.1875 -28 C 31.269531 -27.90625 31.332031 -27.835938 31.375 -27.796875 C 31.425781 -27.753906 31.492188 -27.691406 31.578125 -27.609375 C 31.660156 -27.609375 31.742188 -27.609375 31.828125 -27.609375 C 31.910156 -27.609375 31.992188 -27.609375 32.078125 -27.609375 C 32.171875 -27.609375 32.257812 -27.628906 32.34375 -27.671875 C 32.425781 -27.710938 32.507812 -27.734375 32.59375 -27.734375 C 32.851562 -28.503906 32.984375 -29.226562 32.984375 -29.90625 C 32.984375 -32.125 32.984375 -34.335938 32.984375 -36.546875 C 32.984375 -38.765625 32.984375 -40.941406 32.984375 -43.078125 C 32.898438 -44.785156 32.832031 -46.488281 32.78125 -48.1875 C 32.738281 -49.894531 32.71875 -51.554688 32.71875 -53.171875 C 32.71875 -54.453125 32.71875 -55.726562 32.71875 -57 C 32.71875 -58.28125 32.765625 -59.519531 32.859375 -60.71875 C 32.941406 -61.394531 32.984375 -62.070312 32.984375 -62.75 C 32.984375 -63.4375 32.984375 -64.125 32.984375 -64.8125 C 32.984375 -65.0625 32.984375 -65.3125 32.984375 -65.5625 C 32.984375 -65.820312 32.984375 -66.082031 32.984375 -66.34375 C 33.316406 -66.769531 33.742188 -66.984375 34.265625 -66.984375 C 35.191406 -67.234375 36.9375 -67.316406 39.5 -67.234375 C 39.664062 -67.148438 39.8125 -67.066406 39.9375 -66.984375 C 40.070312 -66.898438 40.222656 -66.769531 40.390625 -66.59375 C 40.390625 -66.34375 40.410156 -66.085938 40.453125 -65.828125 C 40.492188 -65.578125 40.515625 -65.320312 40.515625 -65.0625 C 40.515625 -64.207031 40.535156 -63.3125 40.578125 -62.375 C 40.628906 -61.4375 40.609375 -60.5 40.515625 -59.5625 C 40.515625 -58.195312 40.535156 -56.832031 40.578125 -55.46875 C 40.628906 -54.113281 40.65625 -52.710938 40.65625 -51.265625 C 40.65625 -47.335938 40.65625 -43.347656 40.65625 -39.296875 C 40.65625 -35.253906 40.65625 -31.234375 40.65625 -27.234375 C 40.65625 -25.265625 40.675781 -23.257812 40.71875 -21.21875 C 40.757812 -19.175781 40.78125 -17.128906 40.78125 -15.078125 C 40.78125 -13.035156 40.78125 -10.988281 40.78125 -8.9375 C 40.78125 -6.894531 40.738281 -4.851562 40.65625 -2.8125 C 40.65625 -2.46875 40.65625 -2.0625 40.65625 -1.59375 C 40.65625 -1.125 40.566406 -0.632812 40.390625 -0.125 Z M 40.390625 -0.125 "/></g></g></g></svg>